# xmcd
#
# Track frame offsets:
# 150
# 14030
# 25449
# 42446
# 54635
# 68191
# 81970
# 93645
# 108250
# 120703
# 134806
# 147756
# 170499
# 188013
# 202400
# 214848
# 227846
# 241814
# 257368
# 274240
# 291417
# 306071
# 320684
# 338443
#
# Disc length: 4729 seconds
#
#
# Revision: 0
# Processed by: cddbd v1.5.2PL0 Copyright (c) Steve Scherf et al.
# Submitted via: FreeRIP 2.945 
#
DISCID=76127718
DTITLE=Henrick and Ruan - Nossa História - Ao Vivo em Brasília
DYEAR=1900
DGENRE=Sertanejo
TTITLE0=Nossa História
TTITLE1=Medo de Amar
TTITLE2=Zoar e Beber
TTITLE3=Para Tudo
TTITLE4=Vamos pra lá Beber
TTITLE5=Diversão
TTITLE6=Nosso Amor Pega Fogo
TTITLE7=Badalar
TTITLE8=Fui, Tchau
TTITLE9=Viciado em Você
TTITLE10=Telefone Mudo
TTITLE11=Evidências/Coração está em pedaços
TTITLE12=Sorriso Mudo/Saudade Dela
TTITLE13=Nova York
TTITLE14=Só por Você
TTITLE15=Não Quero Mais
TTITLE16=Por Isso
TTITLE17=Doce Paixão
TTITLE18=Por Você eu Choro
TTITLE19=Me Leva pra Casa
TTITLE20=Caixa Postal
TTITLE21=Primeiro Beijo
TTITLE22=Chora Carolina
TTITLE23=Na Estrada
EXTD=
EXTT0=Henrick and Ruan
EXTT1=Henrick and Ruan
EXTT2=Henrick and Ruan
EXTT3=Henrick and Ruan
EXTT4=Henrick and Ruan
EXTT5=Henrick and Ruan
EXTT6=Henrick and Ruan
EXTT7=Henrick and Ruan
EXTT8=Henrick and Ruan
EXTT9=Henrick and Ruan
EXTT10=Henrick and Ruan
EXTT11=Henrick and Ruan
EXTT12=Henrick and Ruan
EXTT13=Henrick and Ruan
EXTT14=Henrick and Ruan
EXTT15=Henrick and Ruan
EXTT16=Henrick and Ruan
EXTT17=Henrick and Ruan
EXTT18=Henrick and Ruan
EXTT19=Henrick and Ruan
EXTT20=Henrick and Ruan
EXTT21=Henrick and Ruan
EXTT22=Henrick and Ruan
EXTT23=Henrick and Ruan
PLAYORDER=
